<svg xmlns="http://www.w3.org/2000/svg" xmlns:xlink="http://www.w3.org/1999/xlink" id="Layer_1" x="0px" y="0px" viewBox="0 0 60 60" style="enable-background:new 0 0 60 60;" xml:space="preserve"><style type="text/css">	.st0{fill:#5E17EB;}</style><g>	<g>		<g>			<path class="st0" d="M35.5,58.5c0.1-1.1,0.2-2.1,0.3-3.2c0.2-1.7,0.4-3.4,0.5-5.1c0-0.6,0-1.3-0.3-1.9c-1.1-2.5-1.6-5.1-1.3-7.8    c0.1-0.6,0-1.3,0-2c0.3,0.1,0.6,0.2,0.8,0.3c4.3,1.9,8.5,3.9,12.8,5.8c0.9,0.4,1.4,1.1,1.6,2c0.4,2.6,0.7,5.3,1,7.9    c0.1,0.7,0.2,1.4,0.3,2.1c0.1,1.3-0.4,1.8-1.6,1.8c-1.2,0-2.4,0-3.6,0c-3.1,0-6.3,0-9.4,0C36.2,58.6,35.9,58.5,35.5,58.5z"></path>			<path class="st0" d="M25.3,38.6c0,2.2,0.1,4.2,0,6.3c-0.1,0.8-0.5,1.7-0.9,2.4c-0.8,1.6-0.7,3.3-0.5,5c0.2,1.8,0.3,3.7,0.5,5.5    c0.1,0.6-0.2,0.8-0.7,0.8c-4.4,0-8.8,0-13.2,0c-1.2,0-1.8-0.5-1.6-1.6c0.4-3.4,0.9-6.8,1.3-10.2c0.1-1,0.7-1.6,1.6-2    c4.2-1.9,8.3-3.8,12.5-5.7C24.5,38.9,24.8,38.8,25.3,38.6z"></path>			<path class="st0" d="M30,30.7c-1.7,0-3.3,0-5,0c-1.1,0-1.4-0.3-1.4-1.4c-0.1-1.5-0.9-2.6-2-3.5c-2.3-1.9-3.7-4.3-4.3-7.2    c-1.7-8.1,4.1-14.7,11-15.6C35.2,2.2,42,7,42.9,14.3c0.5,4.4-0.8,8.2-4.2,11.2c-1.3,1.1-2.3,2.3-2.4,4.2c0,0.7-0.5,1-1.2,1    C33.4,30.7,31.7,30.7,30,30.7z M30,28.6c1.2,0,2.5,0,3.7,0c0.2,0,0.6-0.2,0.7-0.4c0.4-1.9,1.6-3.1,3-4.4    c3.4-3.1,4.4-8.2,2.6-12.2c-2-4.4-6.3-7-11-6.5c-4.4,0.4-8.1,3.5-9.3,7.7c-1.3,4.2,0.1,8.7,3.4,11.4c1.2,1,2.1,2.2,2.5,3.8    c0.1,0.5,0.3,0.6,0.8,0.6C27.5,28.6,28.8,28.6,30,28.6z"></path>			<path class="st0" d="M30,58.6c-0.8,0-1.6,0-2.4,0c-0.5,0-0.7-0.1-0.8-0.7c-0.2-2.7-0.5-5.3-0.7-8c0-0.2,0.1-0.5,0.2-0.7    c0.7-2.1,1.4-4.2,2.1-6.3c0.2-0.5,0.1-0.8-0.3-1.2c-0.2-0.1-0.3-0.3-0.5-0.5c-0.4-0.5-0.2-1.1,0.4-1.1c1.4-0.1,2.9-0.1,4.3,0    c0.6,0,0.8,0.7,0.4,1.1c-1.1,0.8-0.7,1.7-0.4,2.7c0.5,1.5,0.9,3.1,1.5,4.7c0.4,1.2,0.2,2.4,0.1,3.6c-0.2,1.9-0.4,3.8-0.6,5.7    c0,0.5-0.3,0.7-0.8,0.6C31.6,58.5,30.8,58.6,30,58.6z"></path>			<path class="st0" d="M24.7,32.1c3.5,0,7,0,10.6,0c-0.2,1-0.3,1.9-0.6,2.8c-0.1,0.3-0.6,0.5-1,0.6s-0.6,0.2-0.7,0.6    c-0.1,1-0.4,1.2-1.4,1.2c-1.1,0-2.3,0-3.4,0c-0.9,0-1.2-0.3-1.3-1.1c-0.1-0.5-0.3-0.6-0.7-0.7c-0.4-0.1-0.9-0.4-1-0.8    C24.9,33.9,24.9,33,24.7,32.1z"></path>			<path class="st0" d="M19.7,4.1c-0.1,0.2-0.3,0.5-0.5,0.6s-0.7,0.1-0.9,0C17.5,4,16.7,3.3,16,2.4c-0.2-0.2-0.1-0.8,0.1-1    s0.8-0.3,1-0.1C18,2,18.7,2.8,19.5,3.5C19.6,3.6,19.6,3.8,19.7,4.1z"></path>			<path class="st0" d="M40.3,4.1c0.2-0.3,0.3-0.6,0.4-0.8C41.3,2.7,42,2,42.6,1.4C43,1,43.5,1,43.9,1.3c0.4,0.4,0.4,0.9,0,1.3    c-0.6,0.7-1.3,1.3-2,1.9c-0.2,0.2-0.7,0.2-1,0.2C40.7,4.7,40.5,4.3,40.3,4.1z"></path>			<path class="st0" d="M13.6,4.9c0.3,0.1,0.6,0.2,0.8,0.3c0.7,0.4,1.5,0.8,2.2,1.3C17,6.8,17.3,7.1,17,7.7    c-0.3,0.5-0.8,0.6-1.3,0.3c-0.8-0.4-1.6-0.9-2.4-1.4c-0.3-0.2-0.4-0.7-0.4-1C13,5.4,13.4,5.2,13.6,4.9z"></path>			<path class="st0" d="M47.4,14.4c0.5,0,0.9,0,1.4,0s0.9,0.3,0.9,0.8c0,0.6-0.3,0.9-0.9,0.9c-0.9,0-1.9,0-2.8,0    c-0.5,0-0.9-0.3-0.9-0.9c0-0.6,0.4-0.8,0.9-0.8C46.5,14.4,46.9,14.4,47.4,14.4L47.4,14.4z"></path>			<path class="st0" d="M43.6,8.2C43.5,8,43.1,7.8,43,7.6c-0.1-0.3,0-0.8,0.2-0.9C44.1,6.1,45,5.5,46,5.1c0.2-0.1,0.8,0.1,1,0.4    c0.1,0.2,0,0.8-0.1,1C46,7.1,45,7.6,44.1,8.1C44,8.2,43.9,8.2,43.6,8.2z"></path>			<path class="st0" d="M11.8,9.4C13,9.8,14,10,15,10.4c0.2,0.1,0.4,0.7,0.4,1c-0.1,0.3-0.6,0.6-0.9,0.6c-1-0.2-2-0.5-3-0.8    c-0.4-0.1-0.7-0.6-0.5-1C11.2,9.9,11.6,9.7,11.8,9.4z"></path>			<path class="st0" d="M49,10.6c-0.1,0.1-0.3,0.5-0.6,0.6c-0.9,0.3-1.8,0.5-2.8,0.8c-0.5,0.1-0.9-0.1-1-0.6s0.1-0.9,0.6-1.1    C46.1,10,47,9.8,48,9.5C48.5,9.4,49,9.9,49,10.6z"></path>			<path class="st0" d="M12.7,14.4c0.5,0,0.9,0,1.4,0s0.8,0.3,0.8,0.8s-0.2,0.9-0.7,0.9c-1,0.1-2,0.1-3,0c-0.5,0-0.9-0.4-0.7-0.9    c0.1-0.3,0.5-0.7,0.8-0.8C11.7,14.3,12.2,14.4,12.7,14.4z"></path>		</g>	</g></g><image style="overflow:visible;" width="162" height="49" transform="matrix(1 0 0 1 -214 6.2)"></image></svg>