<svg xmlns="http://www.w3.org/2000/svg" xmlns:xlink="http://www.w3.org/1999/xlink" id="Layer_1" x="0px" y="0px" viewBox="0 0 60 60" style="enable-background:new 0 0 60 60;" xml:space="preserve"><style type="text/css">	.st0{fill:#D72727;}	.st1{fill:#5E17EB;}</style><path class="st0" d="M65.5,305.1c0.1-1.1,0.2-2.1,0.3-3.2c0.2-1.7,0.4-3.4,0.5-5.1c0-0.6,0-1.3-0.3-1.9c-1.1-2.5-1.6-5.1-1.3-7.8 c0.1-0.6,0-1.3,0-2c0.3,0.1,0.6,0.2,0.8,0.3c4.3,1.9,8.5,3.9,12.8,5.8c0.9,0.4,1.4,1.1,1.6,2c0.4,2.6,0.7,5.3,1,7.9 c0.1,0.7,0.2,1.4,0.3,2.1c0.1,1.3-0.4,1.8-1.6,1.8s-2.4,0-3.6,0c-3.1,0-6.3,0-9.4,0C66.2,305.1,65.9,305.1,65.5,305.1z"></path><path class="st0" d="M55.3,285.2c0,2.2,0.1,4.2,0,6.3c-0.1,0.8-0.5,1.7-0.9,2.4c-0.8,1.6-0.7,3.3-0.5,5c0.2,1.8,0.3,3.7,0.5,5.5 c0.1,0.6-0.2,0.8-0.7,0.8c-4.4,0-8.8,0-13.2,0c-1.2,0-1.8-0.5-1.6-1.6c0.4-3.4,0.9-6.8,1.3-10.2c0.1-1,0.7-1.6,1.6-2 c4.2-1.9,8.3-3.8,12.5-5.7C54.5,285.5,54.8,285.4,55.3,285.2z"></path><path class="st0" d="M60,277.3c-1.7,0-3.3,0-5,0c-1.1,0-1.4-0.3-1.4-1.4c-0.1-1.5-0.9-2.6-2-3.5c-2.3-1.9-3.7-4.3-4.3-7.2 c-1.7-8.1,4.1-14.7,11-15.6c6.8-0.9,13.6,4,14.5,11.2c0.5,4.4-0.8,8.2-4.2,11.2c-1.3,1.1-2.3,2.3-2.4,4.2c0,0.7-0.5,1-1.2,1 C63.4,277.3,61.7,277.3,60,277.3z M60,275.2c1.2,0,2.5,0,3.7,0c0.2,0,0.6-0.2,0.7-0.4c0.4-1.9,1.6-3.1,3-4.4 c3.4-3.1,4.4-8.2,2.6-12.2c-2-4.4-6.3-7-11-6.5c-4.4,0.4-8.1,3.5-9.3,7.7c-1.3,4.2,0.1,8.7,3.4,11.4c1.2,1,2.1,2.2,2.5,3.8 c0.1,0.5,0.3,0.6,0.8,0.6C57.5,275.2,58.8,275.2,60,275.2z"></path><path class="st0" d="M60,305.1c-0.8,0-1.6,0-2.4,0c-0.5,0-0.7-0.1-0.8-0.7c-0.2-2.7-0.5-5.3-0.7-8c0-0.2,0.1-0.5,0.2-0.7 c0.7-2.1,1.4-4.2,2.1-6.3c0.2-0.5,0.1-0.8-0.3-1.2c-0.2-0.1-0.3-0.3-0.5-0.5c-0.4-0.5-0.2-1.1,0.4-1.1c1.4-0.1,2.9-0.1,4.3,0 c0.6,0,0.8,0.7,0.4,1.1c-1.1,0.8-0.7,1.7-0.4,2.7c0.5,1.5,0.9,3.1,1.5,4.7c0.4,1.2,0.2,2.4,0.1,3.6c-0.2,1.9-0.4,3.8-0.6,5.7 c0,0.5-0.3,0.7-0.8,0.6C61.6,305.1,60.8,305.1,60,305.1z"></path><path class="st0" d="M54.7,278.7c3.5,0,7,0,10.6,0c-0.2,1-0.3,1.9-0.6,2.8c-0.1,0.3-0.6,0.5-1,0.6s-0.6,0.2-0.7,0.6 c-0.1,1-0.4,1.2-1.4,1.2c-1.1,0-2.3,0-3.4,0c-0.9,0-1.2-0.3-1.3-1.1c-0.1-0.5-0.3-0.6-0.7-0.7s-0.9-0.4-1-0.8 C54.9,280.4,54.9,279.6,54.7,278.7z"></path><path class="st0" d="M49.7,250.7c-0.1,0.2-0.3,0.5-0.5,0.6s-0.7,0.1-0.9,0c-0.8-0.7-1.6-1.4-2.2-2.2c-0.2-0.2-0.1-0.8,0.1-1 c0.2-0.2,0.8-0.3,1-0.1c0.8,0.7,1.6,1.5,2.3,2.3C49.6,250.2,49.6,250.4,49.7,250.7z"></path><path class="st0" d="M70.3,250.6c0.2-0.3,0.3-0.6,0.4-0.8c0.6-0.6,1.2-1.3,1.9-1.9c0.4-0.4,0.9-0.4,1.2-0.1c0.4,0.4,0.4,0.9,0,1.3 c-0.6,0.7-1.3,1.3-2,1.9c-0.2,0.2-0.7,0.2-1,0.2C70.7,251.3,70.5,250.9,70.3,250.6z"></path><path class="st0" d="M43.6,251.5c0.3,0.1,0.6,0.2,0.8,0.3c0.7,0.4,1.5,0.8,2.2,1.3c0.5,0.3,0.7,0.7,0.4,1.2s-0.8,0.6-1.3,0.3 c-0.8-0.4-1.6-0.9-2.4-1.4c-0.3-0.2-0.4-0.7-0.4-1C43,252,43.4,251.7,43.6,251.5z"></path><path class="st0" d="M77.4,261c0.5,0,0.9,0,1.4,0s0.9,0.3,0.9,0.8c0,0.6-0.3,0.9-0.9,0.9c-0.9,0-1.9,0-2.8,0c-0.5,0-0.9-0.3-0.9-0.9 s0.4-0.8,0.9-0.8S76.9,261,77.4,261L77.4,261z"></path><path class="st0" d="M73.6,254.8c-0.2-0.2-0.5-0.3-0.6-0.6s0-0.8,0.2-0.9c0.9-0.6,1.8-1.1,2.7-1.6c0.2-0.1,0.8,0.1,1,0.4 c0.1,0.2,0,0.8-0.1,1c-0.9,0.6-1.8,1.1-2.8,1.7C74,254.7,73.9,254.7,73.6,254.8z"></path><path class="st0" d="M41.8,256c1.2,0.3,2.2,0.6,3.2,1c0.2,0.1,0.4,0.7,0.4,1c-0.1,0.3-0.6,0.6-0.9,0.6c-1-0.2-2-0.5-3-0.8 c-0.4-0.1-0.7-0.6-0.5-1C41.2,256.5,41.5,256.2,41.8,256z"></path><path class="st0" d="M79,257.2c-0.1,0.1-0.3,0.5-0.6,0.6c-0.9,0.3-1.8,0.5-2.8,0.8c-0.5,0.1-0.9-0.1-1-0.6s0.1-0.9,0.6-1.1 c0.9-0.3,1.9-0.5,2.8-0.8C78.5,256,79,256.4,79,257.2z"></path><path class="st0" d="M42.7,261c0.5,0,0.9,0,1.4,0s0.8,0.3,0.8,0.8s-0.2,0.9-0.7,0.9c-1,0.1-2,0.1-3,0c-0.5,0-0.9-0.4-0.7-0.9 c0.1-0.3,0.5-0.7,0.8-0.8C41.7,260.9,42.2,261,42.7,261z"></path><g>	<g>		<path class="st1" d="M52.8,33.4c1.6,1.2,2.8,0.7,4-0.7c0.1,0,0.1,0.1,0.2,0.1c-0.1,0.8-0.2,1.6-0.3,2.3   c-2.4,10.7-8.8,17.9-19.3,21C22.9,60.4,7.8,51.8,3.7,37.3c-0.2-0.7-0.3-1.5-0.5-2.2c-0.3-1.2-1-1.8-2.2-1.8   c-0.4,0-0.8-0.1-1.1-0.1c0.2-0.3,0.4-0.7,0.7-0.9c1.4-1.4,2.8-2.8,4.2-4.2c0.4-0.4,0.7-0.4,1.1,0c1.5,1.6,3.1,3.1,4.6,4.6   c0.1,0.1,0.2,0.3,0.3,0.5c-0.2,0.1-0.4,0.1-0.6,0.2c-0.1,0-0.3,0-0.4,0c-1.7,0-2.6,1.2-2.1,2.8c1.1,4,3.2,7.5,6.2,10.4   c3.7,3.5,8.1,5.7,13.1,6.3c8.4,0.9,15.4-1.9,20.8-8.4c0.2-0.2,0.3-0.8,0.2-1.1c-0.1-0.4-0.1-0.6,0.1-0.8c0.2-0.3,0.4-0.5,0.5-0.8   c0.2-0.4,0.4-0.7,1-0.6c0.2,0,0.6-0.3,0.8-0.6c1.1-2,1.8-4.1,2.2-6.3c0-0.2,0.1-0.4,0.1-0.6C52.8,33.6,52.8,33.5,52.8,33.4z"></path>		<path class="st1" d="M13.8,13.4c-1-1-1.9-2-3.6-2.2c4.6-4.7,10-7.4,16.3-8.2c8.9-1,16.5,1.8,23,8c-0.7,0.3-1.4,0.5-2,0.9   s-1,0.9-1.6,1.4c-4.5-4.2-9.8-6.4-16-6.4C23.8,6.9,18.4,9.1,13.8,13.4z"></path>		<path class="st1" d="M26.3,35.8c-1.2-0.2-2.5-0.4-3.8,0.3c0-0.3,0-0.6,0-0.9c0-0.7,0-1.4,0-2.1c0-1.2-0.4-2.2-1.3-3.1   c-0.8-0.8-1.6-1.6-2.4-2.3c1.2-1.1,2.2-2.2,3.4-3.3c2,2.2,4.5,3.6,7.6,3.6s5.6-1.3,7.7-3.6c1.1,1.1,2.1,2.2,3.3,3.4   c-0.3,0.3-0.7,0.7-1.1,1.2c-2.4,2.4-2.4,2.4-2.4,5.8c0,0.4,0,0.9,0,1.4c-1.3-0.6-2.5-0.4-3.8-0.2c0-0.2-0.1-0.4-0.1-0.5   c-0.2-1.8-1.2-3.1-2.7-4c-0.6-0.4-1.3-0.2-1.8,0.2c-1.4,1-2.4,2.3-2.4,4.1C26.4,35.6,26.4,35.7,26.3,35.8z"></path>		<path class="st1" d="M20.8,22.9c-1.1,1.1-2.2,2.2-3.3,3.3c-0.1-0.1-0.2-0.1-0.3-0.2c-3-3-5.9-5.9-8.9-8.9c-1.4-1.4-0.9-3.6,1-4.1   c0.8-0.2,1.5,0,2.1,0.5C14.6,16.7,17.6,19.8,20.8,22.9L20.8,22.9z"></path>		<path class="st1" d="M42.3,26.2c-1.1-1.1-2.2-2.2-3.2-3.3c0-0.1,0.1-0.2,0.2-0.2c3-3,6-6,9-9c0.7-0.7,1.5-0.9,2.5-0.6   c0.9,0.3,1.4,1,1.6,1.9c0.1,0.7-0.1,1.4-0.6,1.9c-3,3.1-6.1,6.1-9.2,9.2C42.4,26.2,42.3,26.2,42.3,26.2z"></path>		<path class="st1" d="M53.8,17c0.9,1.6,1.6,3.2,2.1,4.9c0.3,0.9,0.5,1.9,0.7,2.8c0.3,1.2,1,1.8,2.2,1.8c0.4,0,0.8,0.1,1.2,0.2   c-0.2,0.3-0.4,0.6-0.7,0.9c-1.4,1.4-2.8,2.8-4.2,4.2c-0.5,0.5-0.6,0.5-1.2,0c-1.5-1.5-3.1-3.1-4.6-4.6c-0.1-0.1-0.2-0.4-0.3-0.6   c0.2,0,0.4-0.1,0.6-0.1c0.2,0,0.3,0,0.5,0c1.6,0,2.5-1.2,2-2.7c-0.3-1.1-0.7-2.1-1.1-3.1c0-0.2,0-0.5,0.2-0.7   c0.4-0.5,0.9-0.9,1.4-1.4C53,18.1,53.4,17.6,53.8,17z"></path>		<path class="st1" d="M25.7,17.4c0-0.4,0-0.7,0-1.1c0-1.9,1.4-3.2,3.3-3.2c0.8,0,1.7,0,2.5,0.1c1.6,0.3,2.5,1.5,2.6,3.1   c0,0.8,0,1.6,0,2.4c-0.1,2.2-1.9,4-4.1,4c-2.3,0-4.1-1.7-4.2-3.9C25.7,18.3,25.8,17.9,25.7,17.4L25.7,17.4z"></path>		<path class="st1" d="M22.5,47c4.9,0,9.8,0,14.8,0c0,0.9,0,1.8,0,2.7c0,0.1-0.2,0.3-0.4,0.3c-2.9,1-6,1.4-9.1,1.1   c-1.6-0.2-3.1-0.6-4.6-0.9c-0.5-0.1-0.8-0.4-0.7-0.9C22.6,48.5,22.5,47.8,22.5,47z"></path>		<path class="st1" d="M37.3,40.1c0,1.6,0,3.1,0,4.7c0,0.1-0.3,0.3-0.5,0.3c-1.4,0-2.8,0-4.2,0c-3.1,0-6.2,0-9.3,0   c-0.6,0-0.7-0.2-0.7-0.7c0-1.2,0-2.5,0-3.7c0-0.2,0-0.4,0-0.6c0.1,0,0.1,0,0.2,0c1.1,1.3,2.5,1.5,4.1,1.5c2-0.1,4,0,6.1,0   C34.6,41.6,36.1,41.5,37.3,40.1C37.2,40.1,37.2,40.1,37.3,40.1z"></path>		<path class="st1" d="M7,26.6c-0.7-0.5-1.4-0.9-2.2-0.6c-0.7,0.3-1.3,0.7-2,1.2c0.3-3.6,1.4-6.9,3.1-10c1.2,1.2,2.3,2.4,3.5,3.6   c0.1,0.1,0.1,0.4,0.1,0.6c-0.1,0.4-0.3,0.9-0.5,1.3c-0.2,0.5-0.2,1-0.9,1c-0.2,0-0.5,0.5-0.6,0.8C7.3,25.1,7.2,25.8,7,26.6z"></path>		<path class="st1" d="M29.8,38.3c-0.5-0.7-1.2-1.3-1.4-2c-0.4-1,0.3-2.5,1.3-3c0.1-0.1,0.3-0.1,0.4,0c0.9,0.5,1.5,1.8,1.3,2.8   c-0.1,0.4-0.3,0.7-0.5,1C30.7,37.5,30.3,37.8,29.8,38.3z"></path>		<path class="st1" d="M28.4,39.7c-1.2-0.1-2.3,0-3.3-0.2c-0.7-0.1-1.1-0.8-1.4-1.5c0-0.1,0.1-0.4,0.2-0.4   C25.3,37.1,27.5,38.1,28.4,39.7z"></path>		<path class="st1" d="M31.5,39.7c0.9-1.6,2.8-2.4,4.4-2.1c0.4,0.1,0.5,0.3,0.3,0.6c-0.5,0.9-1.2,1.5-2.4,1.5   C33,39.6,32.3,39.7,31.5,39.7z"></path>	</g></g><image style="overflow:visible;" width="162" height="49" transform="matrix(1 0 0 1 -255.3615 7.8)"></image></svg>