<svg xmlns="http://www.w3.org/2000/svg" xmlns:xlink="http://www.w3.org/1999/xlink" id="Layer_1" x="0px" y="0px" viewBox="0 0 60 60" style="enable-background:new 0 0 60 60;" xml:space="preserve"><style type="text/css">	.st0{fill:#D72727;}	.st1{fill:#5E17EB;}</style><path class="st0" d="M65.5,305.1c0.1-1.1,0.2-2.1,0.3-3.2c0.2-1.7,0.4-3.4,0.5-5.1c0-0.6,0-1.3-0.3-1.9c-1.1-2.5-1.6-5.1-1.3-7.8 c0.1-0.6,0-1.3,0-2c0.3,0.1,0.6,0.2,0.8,0.3c4.3,1.9,8.5,3.9,12.8,5.8c0.9,0.4,1.4,1.1,1.6,2c0.4,2.6,0.7,5.3,1,7.9 c0.1,0.7,0.2,1.4,0.3,2.1c0.1,1.3-0.4,1.8-1.6,1.8s-2.4,0-3.6,0c-3.1,0-6.3,0-9.4,0C66.2,305.1,65.9,305.1,65.5,305.1z"></path><path class="st0" d="M55.3,285.2c0,2.2,0.1,4.2,0,6.3c-0.1,0.8-0.5,1.7-0.9,2.4c-0.8,1.6-0.7,3.3-0.5,5c0.2,1.8,0.3,3.7,0.5,5.5 c0.1,0.6-0.2,0.8-0.7,0.8c-4.4,0-8.8,0-13.2,0c-1.2,0-1.8-0.5-1.6-1.6c0.4-3.4,0.9-6.8,1.3-10.2c0.1-1,0.7-1.6,1.6-2 c4.2-1.9,8.3-3.8,12.5-5.7C54.5,285.5,54.8,285.4,55.3,285.2z"></path><path class="st0" d="M60,277.3c-1.7,0-3.3,0-5,0c-1.1,0-1.4-0.3-1.4-1.4c-0.1-1.5-0.9-2.6-2-3.5c-2.3-1.9-3.7-4.3-4.3-7.2 c-1.7-8.1,4.1-14.7,11-15.6c6.8-0.9,13.6,4,14.5,11.2c0.5,4.4-0.8,8.2-4.2,11.2c-1.3,1.1-2.3,2.3-2.4,4.2c0,0.7-0.5,1-1.2,1 C63.4,277.3,61.7,277.3,60,277.3z M60,275.2c1.2,0,2.5,0,3.7,0c0.2,0,0.6-0.2,0.7-0.4c0.4-1.9,1.6-3.1,3-4.4 c3.4-3.1,4.4-8.2,2.6-12.2c-2-4.4-6.3-7-11-6.5c-4.4,0.4-8.1,3.5-9.3,7.7c-1.3,4.2,0.1,8.7,3.4,11.4c1.2,1,2.1,2.2,2.5,3.8 c0.1,0.5,0.3,0.6,0.8,0.6C57.5,275.2,58.8,275.2,60,275.2z"></path><path class="st0" d="M60,305.1c-0.8,0-1.6,0-2.4,0c-0.5,0-0.7-0.1-0.8-0.7c-0.2-2.7-0.5-5.3-0.7-8c0-0.2,0.1-0.5,0.2-0.7 c0.7-2.1,1.4-4.2,2.1-6.3c0.2-0.5,0.1-0.8-0.3-1.2c-0.2-0.1-0.3-0.3-0.5-0.5c-0.4-0.5-0.2-1.1,0.4-1.1c1.4-0.1,2.9-0.1,4.3,0 c0.6,0,0.8,0.7,0.4,1.1c-1.1,0.8-0.7,1.7-0.4,2.7c0.5,1.5,0.9,3.1,1.5,4.7c0.4,1.2,0.2,2.4,0.1,3.6c-0.2,1.9-0.4,3.8-0.6,5.7 c0,0.5-0.3,0.7-0.8,0.6C61.6,305.1,60.8,305.1,60,305.1z"></path><path class="st0" d="M54.7,278.7c3.5,0,7,0,10.6,0c-0.2,1-0.3,1.9-0.6,2.8c-0.1,0.3-0.6,0.5-1,0.6s-0.6,0.2-0.7,0.6 c-0.1,1-0.4,1.2-1.4,1.2c-1.1,0-2.3,0-3.4,0c-0.9,0-1.2-0.3-1.3-1.1c-0.1-0.5-0.3-0.6-0.7-0.7s-0.9-0.4-1-0.8 C54.9,280.4,54.9,279.6,54.7,278.7z"></path><path class="st0" d="M49.7,250.7c-0.1,0.2-0.3,0.5-0.5,0.6s-0.7,0.1-0.9,0c-0.8-0.7-1.6-1.4-2.2-2.2c-0.2-0.2-0.1-0.8,0.1-1 c0.2-0.2,0.8-0.3,1-0.1c0.8,0.7,1.6,1.5,2.3,2.3C49.6,250.2,49.6,250.4,49.7,250.7z"></path><path class="st0" d="M70.3,250.6c0.2-0.3,0.3-0.6,0.4-0.8c0.6-0.6,1.2-1.3,1.9-1.9c0.4-0.4,0.9-0.4,1.2-0.1c0.4,0.4,0.4,0.9,0,1.3 c-0.6,0.7-1.3,1.3-2,1.9c-0.2,0.2-0.7,0.2-1,0.2C70.7,251.3,70.5,250.9,70.3,250.6z"></path><path class="st0" d="M43.6,251.5c0.3,0.1,0.6,0.2,0.8,0.3c0.7,0.4,1.5,0.8,2.2,1.3c0.5,0.3,0.7,0.7,0.4,1.2s-0.8,0.6-1.3,0.3 c-0.8-0.4-1.6-0.9-2.4-1.4c-0.3-0.2-0.4-0.7-0.4-1C43,252,43.4,251.7,43.6,251.5z"></path><path class="st0" d="M77.4,261c0.5,0,0.9,0,1.4,0s0.9,0.3,0.9,0.8c0,0.6-0.3,0.9-0.9,0.9c-0.9,0-1.9,0-2.8,0c-0.5,0-0.9-0.3-0.9-0.9 s0.4-0.8,0.9-0.8S76.9,261,77.4,261L77.4,261z"></path><path class="st0" d="M73.6,254.8c-0.2-0.2-0.5-0.3-0.6-0.6s0-0.8,0.2-0.9c0.9-0.6,1.8-1.1,2.7-1.6c0.2-0.1,0.8,0.1,1,0.4 c0.1,0.2,0,0.8-0.1,1c-0.9,0.6-1.8,1.1-2.8,1.7C74,254.7,73.9,254.7,73.6,254.8z"></path><path class="st0" d="M41.8,256c1.2,0.3,2.2,0.6,3.2,1c0.2,0.1,0.4,0.7,0.4,1c-0.1,0.3-0.6,0.6-0.9,0.6c-1-0.2-2-0.5-3-0.8 c-0.4-0.1-0.7-0.6-0.5-1C41.2,256.5,41.5,256.2,41.8,256z"></path><path class="st0" d="M79,257.2c-0.1,0.1-0.3,0.5-0.6,0.6c-0.9,0.3-1.8,0.5-2.8,0.8c-0.5,0.1-0.9-0.1-1-0.6s0.1-0.9,0.6-1.1 c0.9-0.3,1.9-0.5,2.8-0.8C78.5,256,79,256.4,79,257.2z"></path><path class="st0" d="M42.7,261c0.5,0,0.9,0,1.4,0s0.8,0.3,0.8,0.8s-0.2,0.9-0.7,0.9c-1,0.1-2,0.1-3,0c-0.5,0-0.9-0.4-0.7-0.9 c0.1-0.3,0.5-0.7,0.8-0.8C41.7,260.9,42.2,261,42.7,261z"></path><g>	<path class="st0" d="M-113,454.6c1.6,1.2,2.8,0.7,4-0.7c0.1,0,0.1,0.1,0.2,0.1c-0.1,0.8-0.2,1.6-0.3,2.3  c-2.4,10.7-8.8,17.9-19.3,21c-14.4,4.3-29.5-4.3-33.6-18.8c-0.2-0.7-0.3-1.5-0.5-2.2c-0.3-1.2-1-1.8-2.2-1.8  c-0.4,0-0.8-0.1-1.1-0.1c0.2-0.3,0.4-0.7,0.7-0.9c1.4-1.4,2.8-2.8,4.2-4.2c0.4-0.4,0.7-0.4,1.1,0c1.5,1.6,3.1,3.1,4.6,4.6  c0.1,0.1,0.2,0.3,0.3,0.5c-0.2,0.1-0.4,0.1-0.6,0.2c-0.1,0-0.3,0-0.4,0c-1.7,0-2.6,1.2-2.1,2.8c1.1,4,3.2,7.5,6.2,10.4  c3.7,3.5,8.1,5.7,13.1,6.3c8.4,0.9,15.4-1.9,20.8-8.4c0.2-0.2,0.3-0.8,0.2-1.1c-0.1-0.4-0.1-0.6,0.1-0.8c0.2-0.3,0.4-0.5,0.5-0.8  c0.2-0.4,0.4-0.7,1-0.6c0.2,0,0.6-0.3,0.8-0.6c1.1-2,1.8-4.1,2.2-6.3c0-0.2,0.1-0.4,0.1-0.6C-113.1,454.8-113.1,454.7-113,454.6z"></path>	<path class="st0" d="M-152,434.6c-1-1-1.9-2-3.6-2.2c4.6-4.7,10-7.4,16.3-8.2c8.9-1,16.5,1.8,23,8c-0.7,0.3-1.4,0.5-2,0.9  s-1,0.9-1.6,1.4c-4.5-4.2-9.8-6.4-16-6.4C-142.1,428.1-147.4,430.3-152,434.6z"></path>	<path class="st0" d="M-139.5,457c-1.2-0.2-2.5-0.4-3.8,0.3c0-0.3,0-0.6,0-0.9c0-0.7,0-1.4,0-2.1c0-1.2-0.4-2.2-1.3-3.1  c-0.8-0.8-1.6-1.6-2.4-2.3c1.2-1.1,2.2-2.2,3.4-3.3c2,2.2,4.5,3.6,7.6,3.6s5.6-1.3,7.7-3.6c1.1,1.1,2.1,2.2,3.3,3.4  c-0.3,0.3-0.7,0.7-1.1,1.2c-2.4,2.4-2.4,2.4-2.4,5.8c0,0.4,0,0.9,0,1.4c-1.3-0.6-2.5-0.4-3.8-0.2c0-0.2-0.1-0.4-0.1-0.5  c-0.2-1.8-1.2-3.1-2.7-4c-0.6-0.4-1.3-0.2-1.8,0.2c-1.4,1-2.4,2.3-2.4,4.1C-139.4,456.8-139.5,456.9-139.5,457z"></path>	<path class="st0" d="M-145.1,444.1c-1.1,1.1-2.2,2.2-3.3,3.3c-0.1-0.1-0.2-0.1-0.3-0.2c-3-3-5.9-5.9-8.9-8.9  c-1.4-1.4-0.9-3.6,1-4.1c0.8-0.2,1.5,0,2.1,0.5C-151.3,437.9-148.2,441-145.1,444.1L-145.1,444.1z"></path>	<path class="st0" d="M-123.6,447.4c-1.1-1.1-2.2-2.2-3.2-3.3c0-0.1,0.1-0.2,0.2-0.2c3-3,6-6,9-9c0.7-0.7,1.5-0.9,2.5-0.6  c0.9,0.3,1.4,1,1.6,1.9c0.1,0.7-0.1,1.4-0.6,1.9c-3,3.1-6.1,6.1-9.2,9.2C-123.5,447.4-123.5,447.4-123.6,447.4z"></path>	<path class="st0" d="M-112,438.2c0.9,1.6,1.6,3.2,2.1,4.9c0.3,0.9,0.5,1.9,0.7,2.8c0.3,1.2,1,1.8,2.2,1.8c0.4,0,0.8,0.1,1.2,0.2  c-0.2,0.3-0.4,0.6-0.7,0.9c-1.4,1.4-2.8,2.8-4.2,4.2c-0.5,0.5-0.6,0.5-1.2,0c-1.5-1.5-3.1-3.1-4.6-4.6c-0.1-0.1-0.2-0.4-0.3-0.6  c0.2,0,0.4-0.1,0.6-0.1s0.3,0,0.5,0c1.6,0,2.5-1.2,2-2.7c-0.3-1.1-0.7-2.1-1.1-3.1c-0.1-0.2-0.1-0.5,0.1-0.7  c0.4-0.5,0.9-0.9,1.4-1.4C-112.9,439.3-112.5,438.8-112,438.2z"></path>	<path class="st0" d="M-140.1,438.6c0-0.4,0-0.7,0-1.1c0-1.9,1.4-3.2,3.3-3.2c0.8,0,1.7,0,2.5,0.1c1.6,0.3,2.5,1.5,2.6,3.1  c0,0.8,0,1.6,0,2.4c-0.1,2.2-1.9,4-4.1,4c-2.3,0-4.1-1.7-4.2-3.9C-140.1,439.5-140.1,439.1-140.1,438.6L-140.1,438.6z"></path>	<path class="st0" d="M-143.3,468.2c4.9,0,9.8,0,14.8,0c0,0.9,0,1.8,0,2.7c0,0.1-0.2,0.3-0.4,0.3c-2.9,1-6,1.4-9.1,1.1  c-1.6-0.2-3.1-0.6-4.6-0.9c-0.5-0.1-0.8-0.4-0.7-0.9C-143.3,469.7-143.3,469-143.3,468.2z"></path>	<path class="st0" d="M-128.6,461.3c0,1.6,0,3.1,0,4.7c0,0.1-0.3,0.3-0.5,0.3c-1.4,0-2.8,0-4.2,0c-3.1,0-6.2,0-9.3,0  c-0.6,0-0.7-0.2-0.7-0.7c0-1.2,0-2.5,0-3.7c0-0.2,0-0.4,0-0.6c0.1,0,0.1,0,0.2,0c1.1,1.3,2.5,1.5,4.1,1.5c2-0.1,4,0,6.1,0  c1.6,0,3.1-0.1,4.2-1.6C-128.7,461.3-128.6,461.3-128.6,461.3z"></path>	<path class="st0" d="M-158.8,447.8c-0.7-0.5-1.4-0.9-2.2-0.6c-0.7,0.3-1.3,0.7-2,1.2c0.3-3.6,1.4-6.9,3.1-10  c1.2,1.2,2.3,2.4,3.5,3.6c0.1,0.1,0.1,0.4,0.1,0.6c-0.1,0.4-0.3,0.9-0.5,1.3c-0.2,0.5-0.2,1-0.9,1c-0.2,0-0.5,0.5-0.6,0.8  C-158.6,446.3-158.7,447-158.8,447.8z"></path>	<path class="st0" d="M-136,459.5c-0.5-0.7-1.2-1.3-1.4-2c-0.4-1,0.3-2.5,1.3-3c0.1-0.1,0.3-0.1,0.4,0c0.9,0.5,1.5,1.8,1.3,2.8  c-0.1,0.4-0.3,0.7-0.5,1C-135.2,458.7-135.5,459-136,459.5z"></path>	<path class="st0" d="M-137.5,460.9c-1.2-0.1-2.3,0-3.3-0.2c-0.7-0.1-1.1-0.8-1.4-1.5c0-0.1,0.1-0.4,0.2-0.4  C-140.5,458.3-138.3,459.3-137.5,460.9z"></path>	<path class="st0" d="M-134.4,460.9c0.9-1.6,2.8-2.4,4.4-2.1c0.4,0.1,0.5,0.3,0.3,0.6c-0.5,0.9-1.2,1.5-2.4,1.5  C-132.8,460.8-133.6,460.9-134.4,460.9z"></path></g><g>	<path class="st0" d="M-805.3,51.3c0-7.6,0-15,0-22.4c2.2-0.2,4.3-0.3,6.4-0.7c12.2-2.5,21.1-12.1,22.7-24.5  c1.9-14.4-6.8-27.7-20.6-31.6c-2.3-0.6-4.7-0.7-7.1-0.9c-0.8-0.1-1.5-0.1-1.5-1.2c0-7,0-14.1,0-21.2c0.5-0.1,0.9-0.2,1.3-0.2  c3.1,0,6.1,0,9.2,0c2.3,0,3.1,0.9,3.1,3.2c0,3.6,0.1,7.2,0,10.8c-0.1,2.3,1.9,1.9,2.9,2.6c0.9,0.7,1.4-0.1,2-0.7  c2.4-2.5,4.9-5,7.3-7.5c1.7-1.7,2.9-1.7,4.6,0c4.3,4.4,8.5,8.7,12.8,13.1c1.7,1.8,1.7,3,0,4.8c-2.3,2.3-4.4,4.9-6.9,6.9  c-1.9,1.6-0.8,2.9-0.3,4.4c0.4,1.5,1.6,1,2.6,1c3.2,0,6.3,0,9.5,0c2.6,0,3.5,0.8,3.5,3.4c0,6.2,0,12.3,0,18.5  c0,2.5-0.8,3.3-3.3,3.3c-3.4,0-6.9,0-10.3,0c-1,0-1.4,0.3-1.9,1.3c-1.1,2-0.8,3.4,1,4.9c2.3,2,4.3,4.3,6.4,6.5  c1.6,1.6,1.6,2.9,0,4.5c-4.3,4.4-8.5,8.7-12.8,13.1c-1.8,1.8-3,1.8-4.8,0c-2.4-2.5-4.9-5-7.3-7.5c-0.7-0.7-1.2-0.7-2.2-0.5  c-2.2,0.6-2.7,1.9-2.6,4.1c0.2,3.1,0.1,6.2,0,9.3c0,2.3-0.9,3.2-3.1,3.2C-798.4,51.3-801.8,51.3-805.3,51.3z"></path>	<path class="st0" d="M-810.9-51.7c0,34.5,0,68.7,0,103c-0.6,0-1.2,0-1.7,0c-7.4,0-14.7,0-22.1,0c-4.8,0-7.9-2.8-7.6-7.6  c0.2-3.6-1-5.9-3.7-8.4c-12-11-17.2-24.9-16-41.1c1.7-22.6,19.3-41.5,41.8-45C-817.2-51.2-814.1-51.4-810.9-51.7z M-813.6,0.1  c0-15.5,0-31.1,0-46.6c0-2.2-0.1-2.5-2.3-2.1c-3.3,0.5-6.7,1-9.9,2c-8.5,2.5-15.7,7.1-21.6,13.8c-10.3,11.9-14,25.6-10.9,41  c2.3,11.5,8.4,20.7,17.5,27.9c0.9,0.7,1.3,1.3,1.2,2.4c-0.1,1.8-0.1,3.7,0.1,5.6c0.2,3.1,1.8,4.4,4.9,4.4c6.2,0,12.3,0,18.5,0  c2.5,0,2.5,0,2.5-2.5C-813.6,30.8-813.6,15.4-813.6,0.1z"></path>	<path class="st0" d="M-791.3,62.2c0.4,1.7,0.8,2.9,0.9,4.1c0.1,2.6-1.5,4.2-4.1,4.3c-1.3,0.1-2.6,0-3.8,0c-0.1,0.2-0.2,0.3-0.2,0.4  c0.1,4.6-1.1,5.8-5.7,5.8c-2.7,0-5.4,0-8.2,0c-3.8,0-5.2-1.4-5.1-5.3c0-0.3,0-0.5,0-1c-1.1,0-2.2,0-3.3,0c-4.3,0-6.3-3.5-4.1-7.3  c0.1-0.2,0.2-0.4,0-0.5c-0.2-1.5-0.7-3-0.7-4.5c0.1-2.2,1.8-3.4,4.2-3.4c7.8,0,15.6,0,23.4,0c1,0,2.1,0.1,3.1,0  c3.8-0.3,5.4,3.4,4.2,6.6C-790.9,61.8-791.3,62.2-791.3,62.2z"></path></g><g>	<path class="st0" d="M-93.5,30.1c0-3.4,0-6.8,0-10.1c1-0.1,1.9-0.1,2.9-0.3c5.5-1.1,9.6-5.5,10.3-11.1C-79.5,2-83.4-4-89.7-5.7  c-1-0.3-2.1-0.3-3.2-0.4c-0.4,0-0.7,0-0.7-0.6c0-3.2,0-6.4,0-9.6c0.2,0,0.4-0.1,0.6-0.1c1.4,0,2.8,0,4.1,0c1,0,1.4,0.4,1.4,1.4  c0,1.6,0,3.3,0,4.9c0,1,0.9,0.8,1.3,1.2c0.4,0.3,0.7-0.1,0.9-0.3c1.1-1.1,2.2-2.3,3.3-3.4c0.8-0.8,1.3-0.8,2.1,0  c1.9,2,3.9,3.9,5.8,5.9c0.8,0.8,0.8,1.3,0,2.2c-1,1.1-2,2.2-3.1,3.1c-0.9,0.7-0.3,1.3-0.1,2c0.2,0.7,0.7,0.5,1.2,0.5  c1.4,0,2.9,0,4.3,0c1.2,0,1.6,0.4,1.6,1.5c0,2.8,0,5.6,0,8.4c0,1.1-0.4,1.5-1.5,1.5c-1.6,0-3.1,0-4.7,0c-0.5,0-0.7,0.1-0.9,0.6  c-0.5,0.9-0.3,1.5,0.4,2.2c1,0.9,2,1.9,2.9,2.9c0.7,0.7,0.7,1.3,0,2c-1.9,2-3.9,4-5.8,5.9c-0.8,0.8-1.4,0.8-2.2,0  c-1.1-1.1-2.2-2.2-3.3-3.4c-0.3-0.3-0.6-0.3-1-0.2c-1,0.3-1.2,0.9-1.2,1.8c0.1,1.4,0,2.8,0,4.2c0,1-0.4,1.4-1.4,1.5  C-90.4,30.1-91.9,30.1-93.5,30.1z"></path>	<path class="st0" d="M-96-16.5c0,15.6,0,31.1,0,46.6c-0.3,0-0.5,0-0.8,0c-3.3,0-6.7,0-10,0c-2.2,0-3.6-1.3-3.4-3.4  c0.1-1.6-0.4-2.7-1.7-3.8c-5.4-5-7.8-11.3-7.3-18.6c0.8-10.2,8.7-18.8,18.9-20.4C-98.8-16.3-97.5-16.4-96-16.5z M-97.2,6.9  c0-7,0-14.1,0-21.1c0-1-0.1-1.1-1.1-1c-1.5,0.2-3,0.5-4.5,0.9c-3.9,1.1-7.1,3.2-9.8,6.3c-4.7,5.4-6.3,11.6-5,18.6  c1,5.2,3.8,9.4,7.9,12.6c0.4,0.3,0.6,0.6,0.5,1.1c0,0.8,0,1.7,0,2.5c0.1,1.4,0.8,2,2.2,2c2.8,0,5.6,0,8.4,0c1.1,0,1.1,0,1.1-1.1  C-97.2,20.8-97.2,13.9-97.2,6.9z"></path>	<path class="st0" d="M-87.1,35.1c0.2,0.8,0.4,1.3,0.4,1.8c0,1.2-0.7,1.9-1.9,1.9c-0.6,0-1.2,0-1.7,0c-0.1,0.1-0.1,0.2-0.1,0.2  c0,2.1-0.5,2.6-2.6,2.6c-1.2,0-2.5,0-3.7,0c-1.7,0-2.4-0.7-2.3-2.4c0-0.1,0-0.2,0-0.5c-0.5,0-1,0-1.5,0c-2,0-2.9-1.6-1.9-3.3  c0-0.1,0.1-0.2,0-0.2c-0.1-0.7-0.3-1.4-0.3-2c0.1-1,0.8-1.6,1.9-1.6c3.5,0,7.1,0,10.6,0c0.5,0,0.9,0,1.4,0c1.7-0.2,2.5,1.5,1.9,3  C-87,34.9-87.1,35.1-87.1,35.1z"></path></g><path class="st1" d="M49.8,41.4c-0.6,0-1.2,0-1.8,0c0-0.9,0-1.8,0-2.7c-0.1-2.7,0-5.4-0.2-8.1c-0.5-5.5-2.1-10.7-5.6-15.2 c-0.3-0.4-0.6-0.7-0.9-1c-0.7,1.1-1.3,2.2-2.1,3.2c-1.8,2.4-4.3,3.9-7.1,4.9s-5.7,1.5-8.7,2c-2.5,0.5-5,0.9-7.3,2 c-2.7,1.4-4,3.7-4.3,6.7c0,0.4-0.1,0.7-0.1,1.1c0,0,0,0.1-0.1,0.2c-0.7,0-1.4,0-2.2,0c0,1.6-0.2,3.1,0.4,4.5c0.5,1.4,1.6,2.2,3,2.5 c0.5,0.1,0.7,0.3,0.8,0.8c1.7,4.6,4.4,8.4,8.8,10.8c2.5,1.4,5.3,1.8,8.1,1.8c3.8,0,7.5,0,11.3,0c0.1,0,0.3,0,0.6,0 c-0.5,0.3-0.8,0.6-1.2,0.9c-4,2.7-8.4,3.9-13.2,3.5C21,58.8,15.8,55,12,49c-0.6-1-1.1-2.1-1.7-3.2c-0.1-0.2-0.3-0.4-0.5-0.5 c-3.2-1.8-4.7-4.5-4.7-8C5,32.7,5,28.2,5.2,23.6c0.2-4.9,2-9.3,5-13.2C14.7,5,20.4,1.8,27.4,0.9c3.7-0.5,7.3-0.2,10.7,1.5 c1.2,0.6,2.2,1.4,3,2.5c0.1,0.1,0.3,0.3,0.5,0.3c4.4,0.2,7.3,2.7,9.5,6.2c2,3.3,3.1,6.9,3.5,10.7c0.2,2.6,0.2,5.3,0.3,7.9 c0,0.4,0.1,0.7,0.5,0.9c1,0.8,1.7,1.8,1.8,3.1c0.1,1.1,0,2.3-0.1,3.4c-0.1,1.3-0.9,2.3-1.9,3.1c-0.2,0.2-0.4,0.4-0.5,0.7 c-1.1,5.3-5.7,9.1-11.2,9.1c-3.5,0-7,0-10.5,0c-1.5,0-3,0-4.5-0.1c-1.7-0.1-2.9-1.6-2.9-3.3s1.2-3.2,2.8-3.4c1-0.1,2.1-0.1,3.2,0 c1.2,0.1,2,0.7,2.6,1.8c0.1,0.2,0.4,0.4,0.6,0.4c3.2,0,6.3,0.1,9.5-0.1C47,45.5,48.8,43.9,49.8,41.4C49.8,41.7,49.8,41.6,49.8,41.4z "></path><image style="overflow:visible;" width="162" height="49" transform="matrix(1 0 0 1 -147 68.2)"></image></svg>